<svg width="24" height="24" viewBox="0 0 24 24" fill="none" xmlns="http://www.w3.org/2000/svg"><path d="M9.594 3.94c.09-.542.56-.94 1.11-.94h2.593c.55 0 1.02.398 1.11.94l.213 1.28c.063.375.313.687.645.87.074.04.147.084.22.128.324.196.72.257 1.075.124l1.217-.456a1.125 1.125 0 0 1 1.37.49l1.296 2.247a1.125 1.125 0 0 1-.26 1.43l-1.003.828c-.293.24-.438.614-.43.993v.255c-.008.378.137.75.43.99l1.004.828c.424.35.534.954.26 1.43l-1.298 2.247a1.125 1.125 0 0 1-1.369.49l-1.217-.455c-.355-.133-.75-.072-1.076.124a6.426 6.426 0 0 1-.22.128c-.33.183-.58.495-.644.87l-.213 1.28c-.09.542-.56.94-1.11.94h-2.594c-.55 0-1.02-.398-1.11-.94l-.213-1.28c-.062-.375-.312-.687-.644-.87a6.44 6.44 0 0 1-.22-.128c-.325-.196-.72-.257-1.076-.124l-1.217.456a1.125 1.125 0 0 1-1.369-.49l-1.297-2.247a1.125 1.125 0 0 1 .26-1.43l1.004-.828c.293-.24.438-.614.431-.993a6.902 6.902 0 0 1 .001-.255c.008-.378-.137-.75-.429-.99l-1.003-.828a1.125 1.125 0 0 1-.26-1.43l1.297-2.247a1.125 1.125 0 0 1 1.37-.49l1.216.455c.356.133.751.072 1.076-.124.072-.044.146-.087.22-.128.332-.183.582-.495.644-.87l.214-1.28z" stroke="#2F2F2F" stroke-linecap="round" stroke-linejoin="round"/><path d="M15 12a3 3 0 1 1-6 0 3 3 0 0 1 6 0z" stroke="#2F2F2F" stroke-linecap="round" stroke-linejoin="round"/></svg>