<svg width="24" height="24" viewBox="0 0 24 24" fill="none" xmlns="http://www.w3.org/2000/svg"><path d="m14.74 9-.346 9m-4.788 0L9.26 9m9.968-3.21c.342.052.682.107 1.022.166m-1.022-.166L18.16 19.673a2.25 2.25 0 0 1-2.244 2.077H8.084a2.25 2.25 0 0 1-2.244-2.077L4.772 5.79m14.456 0a48.108 48.108 0 0 0-3.478-.397M4.772 5.79c-.342.05-.682.106-1.022.165m1.022-.165a48.11 48.11 0 0 1 3.478-.397m7.5 0v-.916c0-1.18-.91-2.164-2.09-2.2a51.966 51.966 0 0 0-3.32 0c-1.18.036-2.09 1.02-2.09 2.2v.916m7.5 0a48.668 48.668 0 0 0-7.5 0" stroke="#2F2F2F" stroke-linecap="round" stroke-linejoin="round"/></svg>