<svg aria-hidden="true" style="position: absolute; width: 0; height: 0; overflow: hidden;" version="1.1" xmlns="http://www.w3.org/2000/svg" xmlns:xlink="http://www.w3.org/1999/xlink">
<defs>
<symbol id="arrow-left" viewBox="0 0 19 32">
<path d="M1.611 16.989c-0.262-0.263-0.409-0.618-0.409-0.989s0.147-0.727 0.409-0.989l14-14c0.128-0.138 0.283-0.248 0.454-0.324s0.357-0.118 0.545-0.121c0.188-0.003 0.375 0.031 0.549 0.102s0.333 0.175 0.466 0.308c0.133 0.133 0.238 0.291 0.308 0.466s0.105 0.361 0.102 0.549c-0.003 0.188-0.044 0.373-0.121 0.545s-0.187 0.326-0.324 0.454l-13.011 13.011 13.011 13.011c0.138 0.128 0.248 0.283 0.324 0.454s0.118 0.357 0.121 0.545c0.003 0.188-0.031 0.375-0.102 0.549s-0.175 0.333-0.308 0.466c-0.133 0.133-0.291 0.238-0.466 0.308s-0.361 0.105-0.549 0.102c-0.188-0.003-0.373-0.044-0.545-0.121s-0.326-0.187-0.454-0.324l-14-14z"></path>
</symbol>
<symbol id="arrow-right" viewBox="0 0 19 32">
<path d="M17.577 16.989c0.262-0.263 0.409-0.618 0.409-0.989s-0.147-0.727-0.409-0.989l-14-14c-0.128-0.138-0.283-0.248-0.454-0.324s-0.357-0.118-0.545-0.121-0.375 0.031-0.549 0.102c-0.174 0.070-0.333 0.175-0.466 0.308s-0.238 0.291-0.308 0.466c-0.070 0.174-0.105 0.361-0.102 0.549s0.044 0.373 0.121 0.545 0.187 0.326 0.324 0.454l13.011 13.011-13.011 13.011c-0.138 0.128-0.248 0.283-0.324 0.454s-0.118 0.357-0.121 0.545c-0.003 0.188 0.031 0.375 0.102 0.549s0.175 0.333 0.308 0.466c0.133 0.133 0.291 0.238 0.466 0.308s0.361 0.105 0.549 0.102c0.188-0.003 0.373-0.044 0.545-0.121s0.326-0.187 0.454-0.324l14-14z"></path>
</symbol>
</defs>
</svg>