<svg width="16" height="16" viewBox="0 0 16 16" fill="none" xmlns="http://www.w3.org/2000/svg">
<path d="M11.2413 2.99138L12.366 1.86604C12.6005 1.63159 12.9184 1.49988 13.25 1.49988C13.5816 1.49988 13.8995 1.63159 14.134 1.86604C14.3685 2.10049 14.5002 2.41848 14.5002 2.75004C14.5002 3.08161 14.3685 3.39959 14.134 3.63404L7.05467 10.7134C6.70222 11.0656 6.26758 11.3245 5.79 11.4667L4 12L4.53333 10.21C4.67552 9.73247 4.93442 9.29783 5.28667 8.94538L11.2413 2.99138ZM11.2413 2.99138L13 4.75004M12 9.33338V12.5C12 12.8979 11.842 13.2794 11.5607 13.5607C11.2794 13.842 10.8978 14 10.5 14H3.5C3.10218 14 2.72064 13.842 2.43934 13.5607C2.15804 13.2794 2 12.8979 2 12.5V5.50004C2 5.10222 2.15804 4.72069 2.43934 4.43938C2.72064 4.15808 3.10218 4.00004 3.5 4.00004H6.66667" stroke="#9EBBFF" stroke-linecap="round" stroke-linejoin="round"/>
</svg>
