<svg width="0" height="0" class="hidden">
<symbol fill="none" xmlns="http://www.w3.org/2000/svg" viewBox="0 0 14 14" id="x">
    <path d="M1 13L13 1M1 1L13 13" stroke="#407BFF" stroke-width="1.5" stroke-linecap="round" stroke-linejoin="round"></path>
    </symbol>
  <symbol fill="none" xmlns="http://www.w3.org/2000/svg" viewBox="0 0 20 10" id="arrow-long-leftsolid">
    <path fill-rule="evenodd" clip-rule="evenodd" d="M5.28.72a.75.75 0 0 1 0 1.06L2.81 4.25H19a.75.75 0 0 1 0 1.5H2.81l2.47 2.47a.75.75 0 1 1-1.06 1.06L.47 5.53a.75.75 0 0 1 0-1.06L4.22.72a.75.75 0 0 1 1.06 0z" fill="#2F2F2F"></path>
  </symbol>
  <symbol fill="none" xmlns="http://www.w3.org/2000/svg" viewBox="0 0 24 24" id="arrow-right-on-rectangleoutline">
    <path d="M15.75 9V5.25A2.25 2.25 0 0 0 13.5 3h-6a2.25 2.25 0 0 0-2.25 2.25v13.5A2.25 2.25 0 0 0 7.5 21h6a2.25 2.25 0 0 0 2.25-2.25V15m3 0 3-3m0 0-3-3m3 3H9" stroke="#2F2F2F" stroke-linecap="round" stroke-linejoin="round"></path>
  </symbol>
  <symbol fill="none" xmlns="http://www.w3.org/2000/svg" viewBox="0 0 24 24" id="arrow-up-trayoutline"><path d="M3 16.5v2.25A2.25 2.25 0 0 0 5.25 21h13.5A2.25 2.25 0 0 0 21 18.75V16.5m-13.5-9L12 3m0 0 4.5 4.5M12 3v13.5" stroke="#2F2F2F" stroke-linecap="round" stroke-linejoin="round"></path>
  </symbol>
  <symbol fill="none" xmlns="http://www.w3.org/2000/svg" viewBox="0 0 32 32" id="calendar-daysoutline">
    <path d="M7.25 1v3.75M24.75 1v3.75M1 27.25V8.5a3.75 3.75 0 0 1 3.75-3.75h22.5A3.75 3.75 0 0 1 31 8.5v18.75m-30 0A3.75 3.75 0 0 0 4.75 31h22.5A3.75 3.75 0 0 0 31 27.25m-30 0v-12.5A3.75 3.75 0 0 1 4.75 11h22.5A3.75 3.75 0 0 1 31 14.75v12.5m-15-10h.013v.013H16v-.013zM16 21h.013v.013H16V21zm0 3.75h.013v.013H16v-.013zM12.25 21h.013v.013h-.013V21zm0 3.75h.013v.013h-.013v-.013zM8.5 21h.013v.013H8.5V21zm0 3.75h.013v.013H8.5v-.013zm11.25-7.5h.013v.013h-.013v-.013zm0 3.75h.013v.013h-.013V21zm0 3.75h.013v.013h-.013v-.013zm3.75-7.5h.013v.013H23.5v-.013zm0 3.75h.013v.013H23.5V21z" stroke="#407BFF" stroke-width="2" stroke-linecap="round" stroke-linejoin="round"></path>
  </symbol>
  <symbol fill="none" xmlns="http://www.w3.org/2000/svg" viewBox="0 0 24 24" id="chevron-double-upsolid">
    <path fill-rule="evenodd" clip-rule="evenodd" d="M12.53 16.28a.75.75 0 0 1-1.06 0l-7.5-7.5a.75.75 0 0 1 1.06-1.06L12 14.69l6.97-6.97a.75.75 0 1 1 1.06 1.06l-7.5 7.5z" fill="#2F2F2F"></path>
  </symbol>
  <symbol fill="none" xmlns="http://www.w3.org/2000/svg" viewBox="0 0 24 24" id="cog-6-toothoutline">
    <path d="M9.594 3.94c.09-.542.56-.94 1.11-.94h2.593c.55 0 1.02.398 1.11.94l.213 1.28c.063.375.313.687.645.87.074.04.147.084.22.128.324.196.72.257 1.075.124l1.217-.456a1.125 1.125 0 0 1 1.37.49l1.296 2.247a1.125 1.125 0 0 1-.26 1.43l-1.003.828c-.293.24-.438.614-.43.993v.255c-.008.378.137.75.43.99l1.004.828c.424.35.534.954.26 1.43l-1.298 2.247a1.125 1.125 0 0 1-1.369.49l-1.217-.455c-.355-.133-.75-.072-1.076.124a6.426 6.426 0 0 1-.22.128c-.33.183-.58.495-.644.87l-.213 1.28c-.09.542-.56.94-1.11.94h-2.594c-.55 0-1.02-.398-1.11-.94l-.213-1.28c-.062-.375-.312-.687-.644-.87a6.44 6.44 0 0 1-.22-.128c-.325-.196-.72-.257-1.076-.124l-1.217.456a1.125 1.125 0 0 1-1.369-.49l-1.297-2.247a1.125 1.125 0 0 1 .26-1.43l1.004-.828c.293-.24.438-.614.431-.993a6.902 6.902 0 0 1 .001-.255c.008-.378-.137-.75-.429-.99l-1.003-.828a1.125 1.125 0 0 1-.26-1.43l1.297-2.247a1.125 1.125 0 0 1 1.37-.49l1.216.455c.356.133.751.072 1.076-.124.072-.044.146-.087.22-.128.332-.183.582-.495.644-.87l.214-1.28z" stroke="#2F2F2F" stroke-linecap="round" stroke-linejoin="round"></path>
    <path d="M15 12a3 3 0 1 1-6 0 3 3 0 0 1 6 0z" stroke="#2F2F2F" stroke-linecap="round" stroke-linejoin="round"></path>
  </symbol>
  <symbol fill="none" xmlns="http://www.w3.org/2000/svg" viewBox="0 0 24 24" id="eyeoutline">
    <path d="M2.036 12.322a1.012 1.012 0 0 1 0-.64C3.423 7.51 7.36 4.5 12 4.5c4.638 0 8.573 3.007 9.963 7.178.07.207.07.43 0 .64C20.577 16.49 16.64 19.5 12 19.5c-4.638 0-8.574-3.007-9.964-7.178z" stroke="#2F2F2F" stroke-linecap="round" stroke-linejoin="round"></path>
    <path d="M15 12a3 3 0 1 1-6 0 3 3 0 0 1 6 0z" stroke="#2F2F2F" stroke-linecap="round" stroke-linejoin="round"></path>
  </symbol>
  <symbol fill="none" xmlns="http://www.w3.org/2000/svg" viewBox="0 0 22 20" id="eye-slashoutline">
    <path d="M2.98 6.223A10.477 10.477 0 0 0 .934 10c1.292 4.338 5.31 7.5 10.066 7.5.993 0 1.953-.138 2.863-.395M5.228 4.228A10.45 10.45 0 0 1 11 2.5c4.756 0 8.773 3.162 10.065 7.498a10.523 10.523 0 0 1-4.293 5.774M5.228 4.228 2 1m3.228 3.228 3.65 3.65m7.894 7.894L20 19m-3.228-3.228-3.65-3.65A3 3 0 1 0 8.88 7.88m4.241 4.24-4.24-4.24" stroke="#2F2F2F" stroke-linecap="round" stroke-linejoin="round"></path>
  </symbol>
  <symbol fill="none" xmlns="http://www.w3.org/2000/svg" viewBox="0 0 102 48" id="Logo">
    <g clip-path="url(#clip0_146_914)">
      <path d="M15.82 7.318c.673-.53 1.524.618 1.614 1.677.09 1.06-.852 3.444-3.497 4.061-2.645.618-2.958 2.251-2.869 3.223.09.97-.358 2.03-1.3 1.809-.941-.222-1.03-1.679-.18-3.048.853-1.37 3.004-2.604 3.363-3.355.36-.75.09-1.633.808-1.942.717-.309 1.658.486 1.569 1.237 0 0 .717-.706.627-1.766-.059-.695-.472-1.632-.134-1.898z" fill="#9EBBFF"></path>
      <path d="M33.212 13.763c.25-.707 2.017-.309 2.42.662.404.971.27 1.722.673 2.384.403.66-.717 1.764-1.547 1.632-.83-.132-.516-1.633-.516-2.295 0-.662-1.433-1.237-1.03-2.384z" fill="#9EBBFF"></path>
      <path d="M27.609 5.428c.612-.54 1.926.39 2.285 1.14.359.75.045 2.736-1.054 2.692-1.097-.044-.66-1.597-1.052-1.92-.694-.574-.672-1.479-.18-1.912z" fill="#9EBBFF"></path>
      <path d="M20.042.83c.435.673.111 1.588-.994 1.795-1.106.206-1.315-.707-1.913-.5-.598.206-1.256.352-1.524-.119-.267-.47.03-1.177 1.226-1.177 1.195 0 2.407-1.237 3.206 0z" fill="#9EBBFF"></path>
      <path d="M13.086 7.264c.52 0 .94-.447.94-.999 0-.551-.42-.998-.94-.998s-.942.447-.942.998c0 .552.422.999.942.999z" fill="#9EBBFF"></path>
      <path d="M9.002 10.57c-.334-.166-1.43 1.56-.683 1.765.746.207 1.217-1.5.682-1.765z" fill="#9EBBFF"></path>
      <path d="M6.078 15.69s1.464.795.926 2.428c-.538 1.633-1.703 1.427-2.062.927-.358-.5-.358-1.177.24-1.65.597-.47.896-1.705.896-1.705z" fill="#9EBBFF"></path>
      <path d="M37.157 24.489c0-.001.448.662.224 1.853-.223 1.19-.581 3.53.673 4.193 1.255.663 1.749-1.677 1.256-2.383-.493-.706.268-3.135-2.153-3.664z" fill="#9EBBFF"></path>
      <path d="M38.749 35.127c.53 0 .962-.514.962-1.148 0-.635-.431-1.149-.964-1.149-.532.001-.963.515-.963 1.15 0 .633.431 1.147.964 1.147z" fill="#9EBBFF"></path>
      <path d="M.938 35.568c.831-.424 1.524.265 1.614 1.545.09 1.28 1.3 2.384.672 3.046-.628.66-1.357-2.076-1.927-2.33-.875-.39-1.57-1.644-.359-2.262z" fill="#9EBBFF"></path>
      <path d="M36.235 36.848c-.783.795.26 1.618-1.588 3.708-.77.87.567 3.473-3.138 3.443-.001 0-2.153 1.94-4.305 2.207-2.152.265-3.048-.09-5.11 1.06-2.062 1.147-6.634-.796-8.517-1.634-1.883-.84-2.6-.928-4.213-.928-1.613 0-.986-2.472-2.152-3.531-1.166-1.06-2.51-1.5-2.6-2.471-.09-.971-.986-1.413-.896-2.914.09-1.503-1.435-1.943-1.614-3.798-.178-1.854.806-2.206.448-3.266-.358-1.06-.447-1.941.09-3a2.67 2.67 0 0 1 .223-.37c.46-.646.903-.596 1.212-1.661.36-1.237-.627-1.766.449-2.296s1.435 1.058.806 2.648c-.628 1.59-1.435 3.09-.358 3.354 1.076.265.807-3.001 2.242-4.502 1.434-1.502.807-1.854 2.689-3.355s2.062-.882 2.69-2.472c.626-1.59 2.398-3.266 4.203-4.06 1.805-.796 2.611-1.148 2.342-2.473-.27-1.325 1.235-1.324 1.29-2.737.056-1.413-1.2-2.383-2.276-2.03-1.076.353-2.152.353-1.794-.794.36-1.148 2.617-1.06 3.684-.531 1.068.528 1.965-.795 3.4.529 1.434 1.323 3.316 1.765 3.047 4.855-.27 3.091-.538 4.149.627 4.326 1.164.178.18-1.412.18-2.647 0-1.236 2.061-1.148 2.599-.177.537.97-.179 2.648.359 3.267.537.619 1.524.529 1.793 1.411.268.883-.18 4.503 1.076 5.298 1.254.795.986-1.942 2.062-1.103 1.076.837 1.344 2.338.717 3.839-.419 1.002-.462 3.507-.218 5.663.118 1.067.306 2.05.552 2.722.74 2.03.78 3.618-.002 4.413z" fill="#9EBBFF"></path>
      <path d="M21.374 14.347c2.354-.732 4.33 3.318 3.51 5.058-.819 1.74-1.17 7.109 1.873 6.441 3.042-.667.82-5.83 2.457-5.726 1.638.104.936 4.828 1.99 6.326 1.053 1.498 4.686 11.754-1.168 15.326-5.854 3.572-14.137 3.457-17.31.806a13.853 13.853 0 0 1-2.88-3.263 6.837 6.837 0 0 1-.65-1.278c-.285-.768-.235-1.038-.523-1.81a7.29 7.29 0 0 0-.722-1.415c-.632-.957-.919-.845-1.51-1.679-.197-.278-.824-1.218-.882-2.485-.015-.332-.058-1.258.343-1.424.454-.186 1.04.78 1.643.58.315-.106.452-.47.539-.7.254-.676 0-1.095-.123-2.098-.095-.776-.208-1.71.254-2.497.076-.13.294-.551 1.018-.944 2.546-1.383 4.833-.115 6.498-2.65 1.665-2.536 1.698-2.702 3.261-3.368 1.565-.666.16-2.51 2.384-3.201z" fill="#C6D7FF"></path>
      <path d="M20.44 48c-1.662 0-3.984-.671-7.02-2.023-1.85-.825-2.506-.894-4.055-.894-1.225 0-1.486-1.1-1.696-1.984-.15-.626-.303-1.272-.717-1.648-.386-.351-.79-.628-1.179-.897-.788-.542-1.468-1.01-1.543-1.819-.029-.32-.177-.585-.348-.892-.271-.484-.608-1.085-.549-2.078.037-.616-.26-1.016-.634-1.523-.413-.556-.88-1.186-.98-2.215-.101-1.054.143-1.666.338-2.159.16-.403.257-.646.13-1.025-.325-.957-.536-2.018.11-3.29.271-.535.558-.786.788-.988.262-.23.451-.394.62-.977.124-.43.054-.747-.015-1.054-.101-.462-.229-1.037.66-1.476.448-.22.886-.183 1.202.1.57.51.626 1.782.136 3.024a42.94 42.94 0 0 1-.263.645c-.34.824-.726 1.756-.558 2.082.013.025.044.085.198.123.009.003.018.004.028.003.173-.06.382-.884.507-1.377.25-.984.562-2.213 1.333-3.02a5.627 5.627 0 0 0 1.015-1.408c.3-.556.584-1.082 1.713-1.981.72-.573 1.198-.846 1.548-1.046.536-.308.68-.39 1.027-1.269.655-1.66 2.466-3.415 4.404-4.268l.007-.004c1.88-.828 2.315-1.06 2.114-2.05-.18-.886.292-1.347.672-1.717.317-.31.592-.578.612-1.107.022-.58-.226-1.12-.664-1.444-.345-.254-.748-.333-1.107-.215-.69.228-1.612.4-2.098-.068-.195-.188-.386-.548-.184-1.195.131-.415.45-.74.926-.94.98-.412 2.475-.224 3.299.184.295.148.574.096 1.005 0 .66-.148 1.483-.331 2.483.592.304.28.64.528.964.766 1.195.878 2.432 1.787 2.204 4.398-.032.386-.066.741-.097 1.067-.232 2.444-.186 2.764.402 2.853.041.007.083.01.125.009.025-.16-.082-.587-.154-.878-.11-.439-.234-.935-.234-1.407 0-.613.382-1.075 1.021-1.235.766-.192 1.863.09 2.3.878.325.588.271 1.335.223 1.994-.034.478-.074 1.02.09 1.208.167.192.416.304.68.424.438.196.981.442 1.19 1.124.096.32.111.855.13 1.531.035 1.24.087 3.115.785 3.557.128.08.2.091.224.085.103-.03.249-.343.336-.53.167-.358.356-.766.762-.861.246-.059.506.018.771.224 1.201.937 1.53 2.617.834 4.28-.576 1.38-.376 6.157.34 8.115.823 2.25.793 3.912-.085 4.806-.204.207-.226.395-.257.797-.05.65-.117 1.537-1.318 2.896-.15.17-.186.536-.224.923-.103 1.047-.258 2.619-3.058 2.65-.486.414-2.416 1.96-4.4 2.204-.612.075-1.126.102-1.58.126-1.149.06-1.978.102-3.39.888-.486.27-1.1.406-1.846.406zM4.913 21.674a.51.51 0 0 0-.218.063c-.356.175-.346.219-.253.638.076.342.18.81.002 1.423-.23.793-.544 1.068-.847 1.334-.21.183-.407.356-.613.762-.493.971-.392 1.758-.069 2.713.216.638.034 1.096-.142 1.538-.175.44-.373.937-.288 1.812.08.822.463 1.34.834 1.841.41.554.833 1.126.78 2.013-.046.775.197 1.21.455 1.67.196.349.398.71.442 1.188.042.459.561.816 1.218 1.268.392.269.836.575 1.26.96.587.534.776 1.33.942 2.03.237.996.389 1.401.95 1.401 1.607 0 2.401.083 4.37.96 5.111 2.277 7.264 2.154 8.17 1.65 1.57-.874 2.522-.923 3.727-.985.442-.023.942-.049 1.525-.12 2.006-.248 4.07-2.093 4.09-2.111.071-.063.164-.099.26-.099h.003c2.24.02 2.331-.9 2.436-1.966.05-.51.097-.993.408-1.346 1.035-1.17 1.088-1.883 1.132-2.456.032-.42.065-.854.47-1.267.643-.652.611-2.118-.085-4.023-.792-2.165-.978-7.101-.327-8.658.561-1.344.326-2.678-.601-3.4a.526.526 0 0 0-.118-.074c-.072.068-.177.294-.242.433-.178.382-.38.814-.818.94-.264.076-.551.018-.854-.174-1.04-.659-1.094-2.608-1.137-4.173-.017-.571-.032-1.111-.1-1.335-.103-.338-.349-.463-.773-.655-.313-.142-.667-.302-.944-.62-.369-.423-.322-1.07-.272-1.753.043-.582.087-1.184-.131-1.577-.243-.436-.958-.628-1.437-.508-.443.11-.443.405-.443.502 0 .38.112.83.211 1.225.167.66.31 1.231-.02 1.586-.18.194-.454.265-.812.211-1.377-.208-1.268-1.365-1.05-3.67.032-.323.065-.677.099-1.062.19-2.192-.732-2.87-1.9-3.727-.34-.25-.693-.51-1.029-.82-.703-.65-1.182-.542-1.788-.407-.451.1-.964.215-1.52-.06-.66-.328-1.911-.475-2.653-.164-.264.111-.43.268-.49.466-.067.211-.072.376-.015.432.102.098.537.15 1.319-.107.602-.198 1.262-.078 1.812.327.64.473 1.002 1.249.97 2.076-.032.827-.48 1.265-.84 1.616-.375.367-.552.565-.457 1.032.327 1.618-.756 2.097-2.553 2.888l-.009.003c-1.74.766-3.422 2.387-4.001 3.853-.428 1.082-.708 1.276-1.357 1.648-.328.188-.777.445-1.45.98-1.006.804-1.243 1.242-1.517 1.75a6.357 6.357 0 0 1-1.134 1.571c-.634.662-.918 1.784-1.146 2.685-.134.528-.25.984-.417 1.324-.328.665-.798.662-1.049.6-.407-.101-.603-.336-.695-.515-.327-.634.071-1.595.532-2.71.086-.208.174-.42.258-.634.422-1.068.305-1.973.062-2.19a.164.164 0 0 0-.123-.046z" fill="#407BFF"></path>
      <path d="M10.014 18.402c-.105 0-.21-.013-.312-.038a1.207 1.207 0 0 1-.847-.735c-.302-.717-.115-1.766.489-2.736.491-.788 1.356-1.505 2.12-2.138.56-.466 1.091-.905 1.227-1.19.118-.244.16-.52.2-.786.075-.487.16-1.039.753-1.294.405-.175.898-.097 1.316.208.21.153.383.352.504.582.13-.266.239-.622.204-1.037a5.495 5.495 0 0 0-.13-.705c-.136-.591-.263-1.15.102-1.439a.86.86 0 0 1 .902-.12c.587.25 1.105 1.126 1.179 1.995.099 1.158-.92 3.708-3.716 4.362-2.486.58-2.726 2.079-2.649 2.92.071.77-.163 1.504-.595 1.873-.206.18-.472.278-.746.277zm4.083-8.441a.563.563 0 0 0-.224.045c-.288.124-.34.38-.413.86-.045.292-.096.623-.248.943-.19.396-.714.831-1.378 1.382-.73.605-1.558 1.291-2 2-.493.794-.673 1.687-.447 2.223.09.217.242.352.448.4.217.051.396.013.547-.116.293-.25.454-.809.4-1.392-.076-.824.073-2.819 3.089-3.524 2.461-.574 3.36-2.768 3.277-3.76-.06-.714-.488-1.375-.833-1.521a.28.28 0 0 0-.314.04c-.079.093.037.6.099.872.058.26.12.53.141.781.1 1.177-.677 1.957-.71 1.99a.29.29 0 0 1-.49-.233c.033-.27-.138-.59-.424-.8a.894.894 0 0 0-.52-.189z" fill="#407BFF"></path>
      <path d="M34.904 18.736c-.064 0-.128-.005-.191-.015-.929-.147-.84-1.34-.782-2.129.014-.167.025-.325.025-.444 0-.152-.199-.374-.391-.59-.39-.435-.924-1.032-.624-1.886.118-.337.453-.538.919-.55.733-.017 1.721.432 2.04 1.198.203.49.277.925.343 1.308.067.394.125.734.31 1.036.205.337.157.77-.131 1.19-.318.463-.92.884-1.518.884zm-.997-5.05h-.033c-.1.004-.34.025-.39.17-.177.503.088.852.512 1.325.275.309.535.6.535.965 0 .14-.011.308-.025.487-.043.583-.109 1.464.3 1.53.351.055.863-.226 1.14-.628.074-.108.235-.382.113-.58-.24-.395-.31-.803-.383-1.235-.064-.373-.13-.757-.31-1.19-.209-.503-.927-.843-1.458-.843z" fill="#407BFF"></path>
      <path d="m28.879 9.545-.05-.001c-.946-.038-1.052-.932-1.115-1.465-.021-.176-.055-.467-.112-.524-.399-.328-.632-.791-.64-1.27-.006-.42.16-.81.454-1.07.237-.208.556-.278.924-.205.747.151 1.542.865 1.816 1.437.279.584.225 1.78-.266 2.509-.26.386-.609.589-1.011.589zm-.81-3.995c-.112 0-.201.03-.27.09a.823.823 0 0 0-.26.638c.004.318.159.618.433.845.23.19.27.53.314.89.076.643.157.948.567.965.217.009.399-.101.556-.336.364-.54.429-1.526.225-1.953-.21-.439-.856-1.011-1.41-1.122a.798.798 0 0 0-.156-.018z" fill="#407BFF"></path>
      <path d="M18.731 2.94c-.51 0-.832-.222-1.08-.391-.234-.161-.308-.197-.42-.158-.432.149-1.445.498-1.87-.246a.945.945 0 0 1 .006-.96c.14-.24.52-.64 1.47-.64.364 0 .754-.14 1.131-.274.745-.265 1.672-.595 2.318.405.261.405.304.878.12 1.3-.209.473-.684.81-1.304.926a2.013 2.013 0 0 1-.369.036zm-1.423-1.13c.273 0 .49.148.671.273.268.183.52.355 1.016.263.436-.081.75-.292.882-.594a.803.803 0 0 0-.077-.77c-.38-.59-.824-.466-1.637-.176-.424.152-.862.308-1.327.308-.483 0-.838.13-.973.358a.385.385 0 0 0 0 .396c.13.228.493.225 1.178-.01a.814.814 0 0 1 .267-.048z" fill="#407BFF"></path>
      <path d="M13.086 7.547c-.678 0-1.23-.575-1.23-1.282 0-.707.552-1.282 1.23-1.282.678 0 1.23.575 1.23 1.282 0 .707-.552 1.282-1.23 1.282zm0-1.997c-.36 0-.654.32-.654.715 0 .394.293.715.654.715.36 0 .653-.32.653-.715 0-.394-.294-.715-.654-.715z" fill="#407BFF"></path>
      <path d="M8.448 12.637a.774.774 0 0 1-.206-.029.61.61 0 0 1-.452-.488c-.106-.555.419-1.42.812-1.711.237-.177.419-.149.53-.093.46.228.471.93.244 1.507-.203.518-.548.813-.928.813zm.466-1.752c-.211.178-.58.758-.562 1.095.004.072.018.075.045.082.166.047.346-.198.443-.443.128-.329.118-.613.074-.735z" fill="#407BFF"></path>
      <path d="M5.694 19.688c-.391 0-.772-.18-.987-.48-.486-.677-.364-1.513.295-2.032.425-.336.719-1.234.796-1.552a.282.282 0 0 1 .163-.193.292.292 0 0 1 .256.012c.579.314 1.545 1.295 1.062 2.763-.38 1.154-1.04 1.416-1.4 1.47a1.24 1.24 0 0 1-.184.014zm.544-3.53c-.149.436-.437 1.113-.877 1.46-.513.405-.419.933-.182 1.263a.655.655 0 0 0 .615.234c.394-.059.727-.444.937-1.084.314-.95-.153-1.568-.492-1.872z" fill="#407BFF"></path>
      <path d="M38.478 30.936a1.2 1.2 0 0 1-.56-.15c-1.358-.717-1.118-2.908-.82-4.495.198-1.048-.176-1.638-.18-1.644a.28.28 0 0 1 .134-.42.29.29 0 0 1 .168-.014c1.905.417 2.054 1.925 2.152 2.922.037.364.07.708.174.858.425.607.268 1.958-.298 2.581-.219.24-.485.363-.77.363zm-.835-5.99c.087.348.136.837.021 1.449-.41 2.182-.234 3.49.525 3.891.254.135.449.108.628-.09.411-.453.503-1.524.253-1.882-.187-.27-.226-.666-.272-1.124-.083-.846-.176-1.789-1.155-2.244z" fill="#407BFF"></path>
      <path d="M38.748 35.41c-.69 0-1.251-.642-1.251-1.43 0-.79.56-1.432 1.251-1.432.69 0 1.252.642 1.252 1.43 0 .79-.562 1.432-1.252 1.432zm0-2.295c-.373 0-.676.387-.676.864 0 .476.303.863.676.863s.676-.387.676-.864c0-.478-.303-.865-.676-.865z" fill="#407BFF"></path>
      <path d="M3.02 40.545a.538.538 0 0 1-.076-.005c-.455-.066-.779-.706-1.153-1.448-.175-.349-.47-.933-.613-1.003C.513 37.79.02 37.129 0 36.512c-.013-.5.273-.925.805-1.196.396-.203.805-.209 1.152-.017.5.276.82.93.881 1.793.035.492.255.962.468 1.416.306.65.621 1.322.128 1.842a.558.558 0 0 1-.414.193zm-1.605-4.818a.763.763 0 0 0-.345.093c-.335.17-.5.399-.494.677.011.398.38.87.84 1.075.307.138.539.572.89 1.268.185.364.52 1.03.704 1.13l.004-.004c.218-.23.055-.613-.23-1.219-.223-.478-.477-1.019-.52-1.614-.045-.66-.265-1.16-.588-1.339a.53.53 0 0 0-.26-.067z" fill="#407BFF"></path>
      <path d="M22.77 32.5c.231 1.128-.504 2.314-1.567 2.76-1.488.668-3.356-.118-3.805-1.681a2.27 2.27 0 0 1-.055-1.08.165.165 0 0 1 .058-.095.17.17 0 0 1 .273.091c.244 1.147 1.212 2.005 2.368 1.993 1.149-.01 2.09-.856 2.337-1.99.041-.21.353-.207.393 0z" fill="#407BFF"></path>
      <path d="M9.89 34.226c1.037-.196 1.672-1.414 1.418-2.72-.254-1.308-1.3-2.21-2.339-2.014-1.038.196-1.673 1.414-1.42 2.72.254 1.308 1.301 2.21 2.34 2.014z" fill="white" opacity="0.5"></path>
      <path d="M9.945 28.198c1.073.33 2.15-3.13 4.05-3.912 1.901-.783 3.154-3.245 3.737-4.837.583-1.594 2.976-2.633 2.47-3.747-.505-1.113-2.694-.217-3.984 1.478-1.29 1.697-.714 3.466-2.66 4.215-1.945.748-5.833 6.123-3.613 6.803z" fill="white" opacity="0.5"></path>
      <path d="M35.257 36.728c-.736.717.243 1.46-1.493 3.347-.723.785.534 3.136-2.948 3.109 0 0-2.022 1.753-4.045 1.993-2.021.24-2.863-.08-4.801.956-1.94 1.037-6.237-.716-8.006-1.474-1.77-.76-2.443-.839-3.96-.839-1.516.001-.926-2.23-2.022-3.187-1.096-.957-2.36-1.354-2.444-2.23-.085-.878-.927-1.277-.842-2.632.084-1.354-1.349-1.752-1.517-3.426-.169-1.674.757-1.992.42-2.95-.337-.956-.42-1.752.084-2.709.06-.116.13-.227.21-.332.02.542.051 1.085.24 1.42.194.348.452.67.57 1.046.306.967-.377 1.95-.477 2.956-.185 1.86 1.56 3.3 2.754 4.788 1.063 1.324 1.825 2.953 3.325 3.82 1.669.965 3.834.717 5.662.06 1.828-.658 3.497-1.685 5.36-2.25 2.154-.657 4.466-.668 6.726-.556 1.629.08 3.488.143 4.62-.965.652-.638.913-1.54 1.091-2.411a20.14 20.14 0 0 0 .383-5.082l.591 1.105c.111.963.288 1.85.52 2.458.696 1.833.733 3.267-.001 3.985z" fill="#407BFF" opacity="0.2"></path>
      <path d="M25.413 24.93c1.23-.124 2.367 1.203 2.538 2.963.172 1.76-.687 3.288-1.918 3.412-1.23.123-2.367-1.204-2.538-2.964s.688-3.286 1.919-3.41z" fill="#407BFF"></path>
      <path d="M25.5 25.667c.392.162.56.76.377 1.339-.184.577-.651.915-1.044.754-.392-.162-.56-.76-.377-1.338.184-.578.651-.916 1.043-.755z" fill="white"></path>
      <path d="M26.82 29.451c.185.137.207.467.05.74-.158.271-.437.382-.623.247-.184-.135-.208-.466-.05-.738.158-.273.436-.384.622-.249z" fill="#8BAEFF"></path>
      <path d="M14.858 24.93c-1.231-.124-2.368 1.203-2.539 2.963-.172 1.76.687 3.288 1.918 3.412 1.23.123 2.367-1.204 2.538-2.964.172-1.76-.688-3.286-1.918-3.41z" fill="#407BFF"></path>
      <path d="M14.77 25.667c-.391.162-.56.76-.376 1.339.184.577.65.915 1.043.754.392-.162.56-.76.377-1.338-.184-.578-.65-.916-1.043-.755z" fill="white"></path>
      <path d="M13.451 29.451c-.184.137-.207.467-.05.74.159.271.438.382.623.247.185-.135.208-.466.05-.738-.158-.273-.436-.384-.622-.249z" fill="#8BAEFF"></path>
    </g>
    <path d="M48.576 12.469v8.53h-1.752V12.47h1.752zm2.625-.001v1.376h-6.96v-1.377h6.961zm1.003-.001h3.182c.652-.001 1.213.096 1.681.292.473.195.836.484 1.09.867.254.382.381.852.381 1.41 0 .458-.078.85-.234 1.179-.153.323-.37.595-.65.813a3.375 3.375 0 0 1-.98.516l-.556.292h-2.765l-.012-1.371h2.056c.31 0 .565-.054.768-.163.203-.11.355-.262.457-.457.107-.196.16-.422.16-.68 0-.274-.051-.51-.153-.71a1.028 1.028 0 0 0-.463-.456c-.207-.106-.467-.158-.78-.158h-1.423V21h-1.757V12.47zm4.77 8.53-1.946-3.803 1.858-.012 1.969 3.733V21h-1.881zm6.386-7.072L61.04 21h-1.87l3.17-8.531h1.19l-.17 1.458zM65.286 21l-2.326-7.072-.187-1.46h1.202L67.162 21h-1.875zm-.105-3.176v1.377h-4.506v-1.376h4.506zm7.61.346h1.753a3.176 3.176 0 0 1-.475 1.53 2.83 2.83 0 0 1-1.166 1.042c-.496.25-1.093.375-1.793.375a3.67 3.67 0 0 1-1.47-.281 3.13 3.13 0 0 1-1.113-.82 3.654 3.654 0 0 1-.697-1.29 5.575 5.575 0 0 1-.24-1.693v-.592c0-.624.082-1.188.246-1.692a3.74 3.74 0 0 1 .715-1.295 3.186 3.186 0 0 1 1.12-.82 3.56 3.56 0 0 1 1.453-.287c.71 0 1.31.129 1.799.386.492.258.873.614 1.143 1.067.273.452.437.968.492 1.546h-1.758a2.262 2.262 0 0 0-.206-.873 1.164 1.164 0 0 0-.534-.545c-.234-.125-.546-.188-.937-.188-.293 0-.549.055-.768.164-.218.11-.402.276-.55.498-.149.223-.26.504-.334.844a5.84 5.84 0 0 0-.105 1.184v.603c0 .442.033.83.1 1.166.066.331.168.612.305.843.14.227.32.398.539.516.221.112.489.169.801.169.368-.001.671-.06.91-.177.238-.118.42-.291.545-.522.128-.23.204-.516.228-.86zm4.665-5.701v8.53H75.7V12.47h1.757zm5.11-.001-3.382 4.212-1.95 2.097-.317-1.665 1.318-1.804 2.174-2.841h2.156zm-1.999 8.53-2.513-3.943 1.3-1.09L82.648 21h-2.08zm8.485-1.371v1.37h-4.541V19.63h4.54zm-3.967-7.161v8.53h-1.758V12.47h1.758zm3.375 3.473v1.336h-3.948v-1.337h3.949zm.587-3.474v1.376h-4.535v-1.377h4.535zm1.031-.001h3.182c.652-.001 1.213.096 1.681.292.474.195.837.484 1.091.867.255.382.382.852.382 1.41 0 .458-.078.85-.234 1.179-.153.323-.37.595-.65.813a3.374 3.374 0 0 1-.98.516l-.556.292h-2.765l-.012-1.371h2.057c.308 0 .564-.054.767-.163.202-.11.354-.262.456-.457.106-.196.158-.422.158-.68 0-.274-.05-.51-.152-.71a1.028 1.028 0 0 0-.463-.456c-.208-.106-.468-.158-.78-.158h-1.424V21h-1.758V12.47zm4.77 8.53-1.946-3.803 1.858-.012 1.968 3.733V21h-1.88zM51.77 30.535v.405c0 .648-.088 1.23-.264 1.746a3.84 3.84 0 0 1-.744 1.318c-.32.36-.703.635-1.149.826a3.66 3.66 0 0 1-1.47.287 3.686 3.686 0 0 1-1.471-.287 3.297 3.297 0 0 1-1.149-.826 3.86 3.86 0 0 1-.755-1.319c-.176-.515-.264-1.097-.264-1.746v-.405c0-.652.088-1.234.264-1.746a3.84 3.84 0 0 1 .744-1.32c.324-.363.707-.64 1.148-.831a3.686 3.686 0 0 1 1.47-.288c.54 0 1.03.095 1.472.287.445.19.828.467 1.148.83.324.364.574.803.75 1.32.18.51.27 1.093.27 1.745zm-1.776.405v-.417c0-.453-.04-.851-.123-1.195a2.59 2.59 0 0 0-.362-.867 1.57 1.57 0 0 0-.586-.526 1.675 1.675 0 0 0-.791-.182c-.296 0-.56.06-.79.182-.227.117-.42.293-.58.527a2.672 2.672 0 0 0-.358.868 5.186 5.186 0 0 0-.123 1.195v.417c0 .449.04.847.122 1.195.082.344.203.635.364.873.16.234.355.412.586.533.23.122.494.183.79.183.298 0 .561-.06.792-.182.23-.12.423-.298.58-.532.156-.238.275-.53.357-.873.083-.348.124-.746.124-1.195zm4.8-4.471v8.53h-1.759V26.47h1.758zm3.397 3.643v1.371h-3.877v-1.37h3.878zm.412-3.644v1.376h-4.29v-1.377h4.29zm6.064 7.177 1.7-7.178h.949l.216 1.194L65.721 35h-1.019l-.034-1.354zm-.873-7.178 1.406 7.177L65.081 35h-1.137l-1.892-8.531h1.74zm5.232 7.147 1.39-7.148h1.74l-1.887 8.53H69.13l-.105-1.383zm-1.177-7.148 1.71 7.206L69.513 35h-1.02l-1.822-7.342.234-1.19h.944zm8.472 1.458L74 35h-1.87l3.17-8.531h1.19l-.17 1.458zM78.248 35l-2.326-7.072-.188-1.46h1.201L80.124 35h-1.875zm-.105-3.176v1.377h-4.506v-1.376h4.506zm5.86-5.355v8.53H82.25V26.47h1.752zm2.624-.001v1.376h-6.96v-1.377h6.96zm6.727 7.159v1.37h-4.541V33.63h4.54zm-3.967-7.161v8.53h-1.758V26.47h1.757zm3.375 3.473v1.336h-3.95v-1.337h3.95zm.586-3.474v1.376h-4.535v-1.377h4.535zm1.03-.001h3.183c.653-.001 1.213.096 1.682.292.473.195.836.484 1.09.867.254.382.38.852.38 1.41 0 .458-.077.85-.233 1.179-.154.323-.37.595-.652.813a3.375 3.375 0 0 1-.978.516l-.557.292h-2.766l-.011-1.371h2.056c.309 0 .565-.054.768-.163.203-.11.355-.262.457-.457a1.41 1.41 0 0 0 .158-.68c0-.274-.05-.51-.152-.71a1.027 1.027 0 0 0-.463-.456c-.207-.106-.467-.158-.78-.158h-1.423V35h-1.758V26.47zm4.77 8.53-1.945-3.803 1.857-.012 1.97 3.733V35h-1.882z" fill="#407BFF"></path>
    <defs>
      <clipPath id="clip0_146_914">
        <rect width="40" height="48" fill="white"></rect>
      </clipPath>
    </defs>
  </symbol>
  <symbol fill="none" xmlns="http://www.w3.org/2000/svg" viewBox="0 0 14 2" id="minus-smallsolid">
    <path fill-rule="evenodd" clip-rule="evenodd" d="M.25 1A.75.75 0 0 1 1 .25h12a.75.75 0 1 1 0 1.5H1A.75.75 0 0 1 .25 1z" fill="#2F2F2F"></path>
  </symbol>
  <symbol fill="none" xmlns="http://www.w3.org/2000/svg" viewBox="0 0 24 24" id="pencil-squareoutline">
    <path d="M16.862 4.487 18.55 2.8a1.875 1.875 0 0 1 2.65 2.65L10.583 16.07a4.5 4.5 0 0 1-1.897 1.13L6 18l.8-2.685a4.5 4.5 0 0 1 1.13-1.897l8.932-8.93zm0 0L19.5 7.125M18 14v4.75A2.25 2.25 0 0 1 15.75 21H5.25A2.25 2.25 0 0 1 3 18.75V8.25A2.25 2.25 0 0 1 5.25 6H10" stroke="#2F2F2F" stroke-linecap="round" stroke-linejoin="round"></path>
  </symbol>
  <symbol fill="none" xmlns="http://www.w3.org/2000/svg" viewBox="0 0 20 20" id="plus-circleoutline">
    <path d="M10 7v6m3-3H7m12 0A9 9 0 1 1 1 10a9 9 0 0 1 18 0z" stroke="#2F2F2F" stroke-linecap="round" stroke-linejoin="round"></path>
  </symbol>
  <symbol fill="none" xmlns="http://www.w3.org/2000/svg" viewBox="0 0 14 14" id="plus-smalloutline">
    <path d="M7 1v12m6-6H1" stroke="#2F2F2F" stroke-linecap="round" stroke-linejoin="round"></path>
  </symbol>
  <symbol fill="none" xmlns="http://www.w3.org/2000/svg" viewBox="0 0 36 32" id="presentation-chart-baroutline">
    <path d="M4.25 1v18.75A3.75 3.75 0 0 0 8 23.5h3.75M4.25 1h-2.5m2.5 0h27.5m-20 22.5h12.5m-12.5 0-1.667 5M31.75 1h2.5m-2.5 0v18.75A3.75 3.75 0 0 1 28 23.5h-3.75m0 0 1.667 5m-15.834 0h15.834m-15.834 0L9.25 31m16.667-2.5.833 2.5M13 14.75v2.5M18 11v6.25m5-10v10" stroke="#407BFF" stroke-width="2" stroke-linecap="round" stroke-linejoin="round"></path>
  </symbol>
  <symbol fill="none" xmlns="http://www.w3.org/2000/svg" viewBox="0 0 24 24" id="trashoutline">
    <path d="m14.74 9-.346 9m-4.788 0L9.26 9m9.968-3.21c.342.052.682.107 1.022.166m-1.022-.166L18.16 19.673a2.25 2.25 0 0 1-2.244 2.077H8.084a2.25 2.25 0 0 1-2.244-2.077L4.772 5.79m14.456 0a48.108 48.108 0 0 0-3.478-.397M4.772 5.79c-.342.05-.682.106-1.022.165m1.022-.165a48.11 48.11 0 0 1 3.478-.397m7.5 0v-.916c0-1.18-.91-2.164-2.09-2.2a51.966 51.966 0 0 0-3.32 0c-1.18.036-2.09 1.02-2.09 2.2v.916m7.5 0a48.668 48.668 0 0 0-7.5 0" stroke="#2F2F2F" stroke-linecap="round" stroke-linejoin="round"></path>
  </symbol>
  <symbol fill="none" xmlns="http://www.w3.org/2000/svg" viewBox="0 0 24 24" id="useroutline">
    <g clip-path="url(#clip0_139_386)">
      <circle cx="12" cy="12" r="11.5" stroke="#2F2F2F"></circle>
      <path d="M15 7.077c0 .816-.316 1.599-.878 2.176a2.963 2.963 0 0 1-2.122.9 2.963 2.963 0 0 1-2.122-.9A3.117 3.117 0 0 1 9 7.077c0-.816.316-1.599.878-2.176a2.963 2.963 0 0 1 2.122-.9c.796 0 1.559.324 2.122.901.562.578.878 1.36.878 2.177zM6 18.66a6.23 6.23 0 0 1 1.792-4.285A5.925 5.925 0 0 1 12 12.608c1.575 0 3.086.634 4.208 1.767A6.23 6.23 0 0 1 18 18.66 14.047 14.047 0 0 1 12 20c-2.141 0-4.173-.48-6-1.34z" stroke="#2F2F2F" stroke-linecap="round" stroke-linejoin="round"></path>
    </g>
    <defs>
      <clipPath id="clip0_139_386">
        <rect width="24" height="24" fill="white"></rect>
      </clipPath>
    </defs>
  </symbol>
  <symbol fill="none" xmlns="http://www.w3.org/2000/svg" viewBox="0 0 36 36" id="wrench-screwdriveroutline">
    <path d="M17.033 23.283 26.75 33A4.42 4.42 0 0 0 33 26.75l-9.795-9.795m-6.172 6.328 4.16-5.05c.529-.64 1.234-1.043 2.014-1.276.916-.274 1.938-.314 2.905-.234a7.5 7.5 0 0 0 7.476-10.56l-5.46 5.462a5.006 5.006 0 0 1-3.75-3.75l5.46-5.46a7.5 7.5 0 0 0-10.56 7.477c.152 1.793-.118 3.773-1.506 4.916l-.17.142m-.569 8.333-7.758 9.422a4.247 4.247 0 1 1-5.977-5.977l11.395-9.383L7.848 10.5H5.5L1.75 4.25l2.5-2.5L10.5 5.5v2.348l7.1 7.1-2.908 2.395m13.933 11.282L24.25 24.25M6.112 29.875h.013v.013h-.013v-.013z" stroke="#407BFF" stroke-width="2" stroke-linecap="round" stroke-linejoin="round"></path>
  </symbol>
</svg>