<svg width="32" height="32" viewBox="0 0 32 32" fill="none" xmlns="http://www.w3.org/2000/svg"><path d="M7.25 1v3.75M24.75 1v3.75M1 27.25V8.5a3.75 3.75 0 0 1 3.75-3.75h22.5A3.75 3.75 0 0 1 31 8.5v18.75m-30 0A3.75 3.75 0 0 0 4.75 31h22.5A3.75 3.75 0 0 0 31 27.25m-30 0v-12.5A3.75 3.75 0 0 1 4.75 11h22.5A3.75 3.75 0 0 1 31 14.75v12.5m-15-10h.013v.013H16v-.013zM16 21h.013v.013H16V21zm0 3.75h.013v.013H16v-.013zM12.25 21h.013v.013h-.013V21zm0 3.75h.013v.013h-.013v-.013zM8.5 21h.013v.013H8.5V21zm0 3.75h.013v.013H8.5v-.013zm11.25-7.5h.013v.013h-.013v-.013zm0 3.75h.013v.013h-.013V21zm0 3.75h.013v.013h-.013v-.013zm3.75-7.5h.013v.013H23.5v-.013zm0 3.75h.013v.013H23.5V21z" stroke="#407BFF" stroke-width="2" stroke-linecap="round" stroke-linejoin="round"/></svg>