<svg width="24" height="24" viewBox="0 0 24 24" fill="none" xmlns="http://www.w3.org/2000/svg"><g clip-path="url(#clip0_139_386)"><circle cx="12" cy="12" r="11.5" stroke="#2F2F2F"/><path d="M15 7.077c0 .816-.316 1.599-.878 2.176a2.963 2.963 0 0 1-2.122.9 2.963 2.963 0 0 1-2.122-.9A3.117 3.117 0 0 1 9 7.077c0-.816.316-1.599.878-2.176a2.963 2.963 0 0 1 2.122-.9c.796 0 1.559.324 2.122.901.562.578.878 1.36.878 2.177zM6 18.66a6.23 6.23 0 0 1 1.792-4.285A5.925 5.925 0 0 1 12 12.608c1.575 0 3.086.634 4.208 1.767A6.23 6.23 0 0 1 18 18.66 14.047 14.047 0 0 1 12 20c-2.141 0-4.173-.48-6-1.34z" stroke="#2F2F2F" stroke-linecap="round" stroke-linejoin="round"/></g><defs><clipPath id="clip0_139_386"><rect width="24" height="24" fill="white"/></clipPath></defs></svg>